<?xml version="1.0" encoding="iso-8859-1"?>
<!-- Generator: Adobe Illustrator 14.0.0, SVG Export Plug-In . SVG Version: 6.00 Build 43363)  -->
<!DOCTYPE svg PUBLIC "-//W3C//DTD SVG 1.1//EN" "http://www.w3.org/Graphics/SVG/1.1/DTD/svg11.dtd">
<svg version="1.1" id="&#x56FE;&#x5C42;_1" xmlns="http://www.w3.org/2000/svg" xmlns:xlink="http://www.w3.org/1999/xlink" x="0px"
	 y="0px" width="165.667px" height="33px" viewBox="0 0 165.667 33" style="enable-background:new 0 0 165.667 33;"
	 xml:space="preserve">
<g>
	<path d="M8.534,2.112v6.403c0.609-0.564,1.269-0.987,1.978-1.269c0.709-0.282,1.468-0.423,2.276-0.423
		c1.242,0,2.3,0.316,3.173,0.949s1.406,1.362,1.6,2.188s0.29,2.335,0.29,4.526v16.084h-7.102V14.153
		c0-1.359-0.067-2.232-0.202-2.619s-0.437-0.58-0.905-0.58c-0.434,0-0.727,0.199-0.879,0.598s-0.229,1.189-0.229,2.373v16.646H1.432
		V2.112H8.534z"/>
	<path d="M36.377,19.321h-9.193v5.045c0,1.055,0.076,1.734,0.229,2.039s0.445,0.457,0.879,0.457c0.539,0,0.899-0.202,1.081-0.606
		s0.272-1.187,0.272-2.347v-3.076h6.732v1.723c0,1.441-0.091,2.549-0.272,3.322s-0.606,1.6-1.274,2.479s-1.515,1.538-2.54,1.978
		s-2.312,0.659-3.858,0.659c-1.5,0-2.824-0.217-3.973-0.65s-2.042-1.028-2.681-1.784s-1.081-1.588-1.327-2.496
		s-0.369-2.229-0.369-3.964v-6.803c0-2.039,0.275-3.647,0.826-4.825s1.453-2.08,2.707-2.707s2.695-0.94,4.324-0.94
		c1.992,0,3.636,0.378,4.931,1.134s2.203,1.758,2.725,3.006s0.782,3.003,0.782,5.265V19.321z M29.258,15.524v-1.705
		c0-1.207-0.064-1.986-0.193-2.338s-0.393-0.527-0.791-0.527c-0.492,0-0.797,0.149-0.914,0.448s-0.176,1.104-0.176,2.417v1.705
		H29.258z"/>
	<path d="M46.01,2.112v28.459h-7.313V2.112H46.01z"/>
	<path d="M55.872,2.112v28.459h-7.313V2.112H55.872z"/>
	<path d="M74.487,15.436v5.713c0,2.098-0.105,3.636-0.316,4.614s-0.662,1.893-1.354,2.742s-1.579,1.477-2.663,1.881
		s-2.329,0.606-3.735,0.606c-1.57,0-2.9-0.173-3.99-0.519s-1.937-0.867-2.54-1.564s-1.034-1.541-1.292-2.531
		s-0.387-2.476-0.387-4.456v-5.977c0-2.168,0.234-3.861,0.703-5.08s1.313-2.197,2.531-2.936s2.777-1.107,4.676-1.107
		c1.594,0,2.962,0.237,4.104,0.712s2.024,1.093,2.646,1.854s1.046,1.547,1.274,2.355S74.487,13.784,74.487,15.436z M67.385,13.678
		c0-1.195-0.064-1.948-0.193-2.259s-0.404-0.466-0.826-0.466s-0.703,0.155-0.844,0.466s-0.211,1.063-0.211,2.259v10.529
		c0,1.102,0.07,1.819,0.211,2.153s0.416,0.501,0.826,0.501c0.422,0,0.7-0.152,0.835-0.457s0.202-0.961,0.202-1.969V13.678z"/>
	<path d="M106.127,7.245l-2.834,23.326h-7.708c-0.419-2.85-0.91-6.605-1.472-11.268c-0.192,2.051-0.458,4.12-0.798,6.206
		l-0.78,5.062H84.81l-3.01-23.326h6.121c0.047,0.609,0.564,5.062,1.552,13.359c0.078-0.854,0.61-5.307,1.595-13.359h5.88
		l1.437,13.359c0.228-3.901,0.771-8.354,1.628-13.359H106.127z"/>
	<path d="M123.336,15.436v5.713c0,2.098-0.105,3.636-0.316,4.614s-0.662,1.893-1.354,2.742s-1.579,1.477-2.663,1.881
		s-2.329,0.606-3.735,0.606c-1.57,0-2.9-0.173-3.99-0.519s-1.937-0.867-2.54-1.564s-1.034-1.541-1.292-2.531
		s-0.387-2.476-0.387-4.456v-5.977c0-2.168,0.234-3.861,0.703-5.08s1.313-2.197,2.531-2.936s2.777-1.107,4.676-1.107
		c1.594,0,2.962,0.237,4.104,0.712s2.024,1.093,2.646,1.854s1.046,1.547,1.274,2.355S123.336,13.784,123.336,15.436z
		 M116.235,13.678c0-1.195-0.064-1.948-0.193-2.259s-0.404-0.466-0.826-0.466s-0.703,0.155-0.844,0.466s-0.211,1.063-0.211,2.259
		v10.529c0,1.102,0.07,1.819,0.211,2.153s0.416,0.501,0.826,0.501c0.422,0,0.7-0.152,0.835-0.457s0.202-0.961,0.202-1.969V13.678z"
		/>
	<path d="M132.776,7.245l-0.281,3.067c1.031-2.197,2.525-3.36,4.482-3.489v8.209c-1.301,0-2.256,0.176-2.865,0.527
		s-0.984,0.841-1.125,1.468s-0.211,2.071-0.211,4.333v9.211h-7.102V7.245H132.776z"/>
	<path d="M145.872,2.112v28.459h-7.313V2.112H145.872z"/>
	<path d="M164.575,2.112v28.459h-7.102v-1.692c-0.68,0.705-1.395,1.233-2.145,1.585s-1.535,0.528-2.355,0.528
		c-1.102,0-2.057-0.29-2.865-0.87s-1.327-1.251-1.556-2.013s-0.343-2.004-0.343-3.727V13.467c0-1.793,0.114-3.064,0.343-3.814
		s0.753-1.409,1.573-1.978s1.799-0.853,2.936-0.853c0.879,0,1.685,0.159,2.417,0.476c0.732,0.317,1.397,0.793,1.995,1.427V2.112
		H164.575z M157.473,13.116c0-0.855-0.073-1.43-0.22-1.723s-0.437-0.439-0.87-0.439c-0.422,0-0.706,0.132-0.853,0.396
		s-0.22,0.853-0.22,1.767v11.426c0,0.949,0.07,1.573,0.211,1.872s0.41,0.448,0.809,0.448c0.457,0,0.762-0.167,0.914-0.501
		s0.229-1.151,0.229-2.452V13.116z"/>
</g>
</svg>
